<svg xmlns="http://www.w3.org/2000/svg" width="43" height="43" viewBox="0 0 43 43">
  <g id="Group_13" data-name="Group 13" transform="translate(-766 -4581.519)">
    <path id="Path_6" data-name="Path 6" d="M3545.29,2471.652H3540.7v5.1l4.594.01a.842.842,0,0,1,.843.843l.01,18.177h5.086V2477.6a.852.852,0,0,1,.852-.853h5.948v-5.1h-5.948a.852.852,0,0,1-.852-.853,49.348,49.348,0,0,1,.14-5.015,4.372,4.372,0,0,1,1.164-2.919.27.27,0,0,0,.06-.05,4.25,4.25,0,0,1,2.458-.9,27.851,27.851,0,0,1,2.979-.11v-5.1a65.093,65.093,0,0,0-6.912.221,5.419,5.419,0,0,0-3.511,1.364c-.712.792-1.073,2.036-1.264,3.952-.21,2.036-.21,4.835-.21,8.556A.85.85,0,0,1,3545.29,2471.652Zm-5.437-1.705h4.584c0-3.32.02-5.868.221-7.865.231-2.287.712-3.842,1.7-4.925,1-1.114,2.438-1.655,4.564-1.916a72.85,72.85,0,0,1,7.955-.241.852.852,0,0,1,.853.853v6.791a.852.852,0,0,1-.853.853,36.249,36.249,0,0,0-3.641.1,2.793,2.793,0,0,0-1.515.481l-.03.03a2.886,2.886,0,0,0-.632,1.866,38.675,38.675,0,0,0-.121,3.972h5.939a.852.852,0,0,1,.853.853v6.8a.85.85,0,0,1-.853.843h-5.939v18.177h-.01a.85.85,0,0,1-.843.853l-6.791-.01a.841.841,0,0,1-.843-.842l-.01-18.177h-4.584a.85.85,0,0,1-.853-.843v-6.8A.852.852,0,0,1,3539.853,2469.947Z" transform="translate(-2762.186 2126.747)"/>
    <rect id="Rectangle_10" data-name="Rectangle 10" width="43" height="43" transform="translate(766 4581.519)" fill="none"/>
  </g>
</svg>
