<svg xmlns="http://www.w3.org/2000/svg" width="95" height="97.681" viewBox="0 0 95 97.681">
  <g id="Group_1" data-name="Group 1" transform="translate(-466 -132.653)">
    <path id="Path_6" data-name="Path 6" d="M3552.862,2491.735h-10.119v11.244l10.127.022a1.855,1.855,0,0,1,1.86,1.858l.021,40.073h11.212v-40.079a1.878,1.878,0,0,1,1.878-1.88h13.113v-11.243h-13.113a1.879,1.879,0,0,1-1.878-1.881,108.761,108.761,0,0,1,.308-11.056,9.641,9.641,0,0,1,2.567-6.435.565.565,0,0,0,.133-.11,9.373,9.373,0,0,1,5.418-1.984,61.545,61.545,0,0,1,6.567-.243v-11.244a143.641,143.641,0,0,0-15.239.487,11.942,11.942,0,0,0-7.74,3.007c-1.569,1.746-2.366,4.488-2.787,8.712-.463,4.488-.463,10.659-.463,18.862a1.872,1.872,0,0,1-1.867,1.89Zm-11.986-3.759h10.105c0-7.319.044-12.937.487-17.339.509-5.042,1.569-8.47,3.748-10.857,2.2-2.456,5.375-3.649,10.062-4.224a160.711,160.711,0,0,1,17.537-.531,1.88,1.88,0,0,1,1.881,1.881v14.971a1.879,1.879,0,0,1-1.881,1.88,79.9,79.9,0,0,0-8.027.221,6.161,6.161,0,0,0-3.339,1.061l-.066.065a6.361,6.361,0,0,0-1.393,4.114,84.916,84.916,0,0,0-.268,8.756h13.093a1.878,1.878,0,0,1,1.88,1.881v14.991a1.874,1.874,0,0,1-1.88,1.858h-13.093v40.072h-.022a1.874,1.874,0,0,1-1.859,1.88l-14.971-.021a1.854,1.854,0,0,1-1.86-1.856l-.021-40.073h-10.106a1.872,1.872,0,0,1-1.881-1.859v-14.991a1.878,1.878,0,0,1,1.865-1.87Z" transform="translate(-3049.155 -2320.323)" fill="#fff" stroke="#fff" stroke-width="4"/>
    <rect id="Rectangle_10" data-name="Rectangle 10" width="95" height="95" transform="translate(466 134)" fill="none"/>
  </g>
</svg>
