<svg xmlns="http://www.w3.org/2000/svg" width="24" height="24" viewBox="0 0 24 24">
  <g id="Group_13" data-name="Group 13" transform="translate(-766 -4581.519)">
    <path id="Path_6" data-name="Path 6" d="M3542.364,2464.3h-2.457v2.846l2.457.006a.46.46,0,0,1,.451.471l.005,10.15h2.721v-10.15a.466.466,0,0,1,.456-.477h3.182V2464.3H3546a.466.466,0,0,1-.456-.476c0-1.221,0-2.112.075-2.8a2.5,2.5,0,0,1,.623-1.63.141.141,0,0,0,.032-.028,2.214,2.214,0,0,1,1.314-.5,14.222,14.222,0,0,1,1.594-.062v-2.846a33.291,33.291,0,0,0-3.7.124,2.834,2.834,0,0,0-1.878.762,3.919,3.919,0,0,0-.676,2.207c-.113,1.137-.113,2.7-.113,4.778A.465.465,0,0,1,3542.364,2464.3Zm-2.908-.952h2.452c0-1.854.011-3.277.118-4.392a4.747,4.747,0,0,1,.907-2.75,3.591,3.591,0,0,1,2.441-1.07,37.308,37.308,0,0,1,4.255-.135.466.466,0,0,1,.456.476v3.792a.466.466,0,0,1-.456.476,18.5,18.5,0,0,0-1.948.056,1.448,1.448,0,0,0-.81.269l-.016.017a1.654,1.654,0,0,0-.338,1.042c-.059.532-.065,1.26-.065,2.218h3.177a.466.466,0,0,1,.456.476v3.8a.465.465,0,0,1-.456.47h-3.177v10.15h-.005a.465.465,0,0,1-.451.476l-3.633-.006a.46.46,0,0,1-.451-.47l-.005-10.15h-2.452a.465.465,0,0,1-.456-.47v-3.8A.466.466,0,0,1,3539.456,2463.346Z" transform="translate(-2766.73 2126.641)" fill="#fff"/>
    <rect id="Rectangle_10" data-name="Rectangle 10" width="24" height="24" transform="translate(766 4581.519)" fill="none"/>
  </g>
</svg>
