<svg xmlns="http://www.w3.org/2000/svg" width="45.802" height="45.802" viewBox="0 0 45.802 45.802">
  <path id="Path_8" data-name="Path 8" d="M2464.628,2455h26.547a9.677,9.677,0,0,1,9.627,9.628v26.547a9.676,9.676,0,0,1-9.627,9.627h-26.547a9.677,9.677,0,0,1-9.628-9.627v-26.547a9.677,9.677,0,0,1,9.628-9.628Zm27.271,7.508a.952.952,0,1,1,0,1.9.952.952,0,0,1,0-1.9Zm-14,2.607a12.786,12.786,0,1,1-12.786,12.786A12.784,12.784,0,0,1,2477.9,2465.115Zm10.958,12.786a10.958,10.958,0,1,0-10.958,10.958A10.965,10.965,0,0,0,2488.859,2477.9Zm2.315-21.062h-26.547a7.793,7.793,0,0,0-7.789,7.789v26.547a7.793,7.793,0,0,0,7.789,7.789h26.547a7.793,7.793,0,0,0,7.789-7.789v-26.547a7.793,7.793,0,0,0-7.789-7.789Z" transform="translate(-2455 -2455)"/>
</svg>
