<svg xmlns="http://www.w3.org/2000/svg" width="88" height="88" viewBox="0 0 88 88">
  <path id="Path_2" data-name="Path 2" d="M68.24,50.11H116a18.164,18.164,0,0,1,18.12,18.12v47.76A18.164,18.164,0,0,1,116,134.11H68.24a18.164,18.164,0,0,1-18.12-18.12V68.23A18.164,18.164,0,0,1,68.24,50.11Zm49.43,11.64a4.8,4.8,0,0,1,3.4,8.2c-.04.04-.08.07-.12.11a4.784,4.784,0,0,1-6.67-.11l-.01-.01a4.768,4.768,0,0,1,0-6.77v-.01h0A4.791,4.791,0,0,1,117.67,61.75Zm.98,3.82a1.376,1.376,0,0,0-1.96,0h0a1.413,1.413,0,0,0,0,1.97,1.357,1.357,0,0,0,.99.41,1.391,1.391,0,0,0,.93-.35l.06-.06a1.392,1.392,0,0,0,.41-.98,1.416,1.416,0,0,0-.41-.99ZM92.12,68.73a23.387,23.387,0,1,1-16.53,6.85A23.3,23.3,0,0,1,92.12,68.73Zm14.12,9.26a19.966,19.966,0,1,0,5.85,14.12A19.923,19.923,0,0,0,106.24,77.99ZM116,53.52H68.24A14.75,14.75,0,0,0,53.53,68.23v47.76A14.75,14.75,0,0,0,68.24,130.7H116a14.75,14.75,0,0,0,14.71-14.71V68.23A14.75,14.75,0,0,0,116,53.52Z" transform="translate(-48.12 -48.11)" fill="#fff" stroke="#fff" stroke-width="4"/>
</svg>
