<svg xmlns="http://www.w3.org/2000/svg" width="24" height="24" viewBox="0 0 24 24">
  <g id="Group_14" data-name="Group 14" transform="translate(-580 -4695.007)">
    <path id="Path_10" data-name="Path 10" d="M2096.507,2461.405h-2.152a.5.5,0,0,1-.081,0,12.55,12.55,0,0,1-4.238-1.247,13.494,13.494,0,0,1-3.162-2.143,3.218,3.218,0,0,0-.024,1.255,4.517,4.517,0,0,0,.916,2.036.545.545,0,0,0,.061.079.5.5,0,0,1,.132.205c.1.335-.028.434-.51.541l-.019,0a3.112,3.112,0,0,1-.783.052h-.033a4.673,4.673,0,0,0,.713,1.259,7.873,7.873,0,0,0,1.845,1.673l.01.008c.024.012.047.028.066.04a.406.406,0,0,1,.236.26c.1.343-.052.406-.467.493a4.139,4.139,0,0,1-.8.083h-.033a4.7,4.7,0,0,0,.722.722,12.665,12.665,0,0,0,2.53,1.606l.085.035c.222.091.335.134.335.379v0c0,.2-.094.256-.283.371l-.085.052a8.557,8.557,0,0,1-3.228,1.109c-.373.059-.736.095-1.081.122a16.98,16.98,0,0,0,3.167.821,14.746,14.746,0,0,0,7.561-.738,11.792,11.792,0,0,0,5.588-4.368,11.63,11.63,0,0,0,1.7-3.993c.467-2.1.595-2.217,1.624-3.152l.246-.221h-.675a.41.41,0,0,1-.439-.371.315.315,0,0,1,.066-.193l.732-.967a11.5,11.5,0,0,1-1.529.107,3.4,3.4,0,0,1-1.378-.233.625.625,0,0,1-.089-.055,5.385,5.385,0,0,0-2.69-.856,4.239,4.239,0,0,0-2.181.513,3.508,3.508,0,0,0-1.444,1.484,3.443,3.443,0,0,0-.2,2.49v.016c.01.027.029.075.038.114l0,.016c.062.193.09.3-.08.458s-.278.146-.524.138Zm-2.134-.738h1.963a4.038,4.038,0,0,1,.288-2.774,4.253,4.253,0,0,1,1.77-1.815,5.247,5.247,0,0,1,2.695-.635,6.323,6.323,0,0,1,3.186,1,2.535,2.535,0,0,0,.948.142,14.7,14.7,0,0,0,2.346-.24v0a.5.5,0,0,1,.316.047.333.333,0,0,1,.137.509l-.835,1.1h.826a.515.515,0,0,1,.312.087.332.332,0,0,1,.047.521c-.373.363-.666.631-.906.848-.878.8-.982.892-1.407,2.786a12.247,12.247,0,0,1-1.8,4.218,12.585,12.585,0,0,1-5.985,4.675,15.737,15.737,0,0,1-8.089.793,18.226,18.226,0,0,1-4.918-1.519.37.37,0,0,1-.264-.335.41.41,0,0,1,.439-.371,17.732,17.732,0,0,0,2.662-.162,8.043,8.043,0,0,0,2.511-.777,13.962,13.962,0,0,1-2.331-1.539,2.82,2.82,0,0,1-1.171-1.633.3.3,0,0,1,.014-.126.451.451,0,0,1,.533-.264,2.188,2.188,0,0,0,.368.047,8.2,8.2,0,0,1-1.435-1.416,4.845,4.845,0,0,1-.991-2.087.336.336,0,0,1,.024-.189.477.477,0,0,1,.571-.205,1.844,1.844,0,0,0,.505.087c.047,0,.094,0,.141,0a5.117,5.117,0,0,1-.864-2.087,3.224,3.224,0,0,1,.34-2.217.469.469,0,0,1,.368-.205.419.419,0,0,1,.467.347,13.3,13.3,0,0,0,7.221,3.377Z" transform="translate(-1505 2242.892)" fill="#fff"/>
    <rect id="Rectangle_11" data-name="Rectangle 11" width="24" height="24" transform="translate(580 4695.007)" fill="none"/>
  </g>
</svg>
