<svg xmlns="http://www.w3.org/2000/svg" width="85.418" height="82" viewBox="0 0 85.418 82">
  <g id="Group_2" data-name="Group 2" transform="translate(-450 -487)">
    <g id="Group_14" data-name="Group 14" transform="translate(-127.999 -4208.169)">
      <path id="Path_10" data-name="Path 10" d="M2124.814,2480.125h-7.446a1.519,1.519,0,0,1-.279-.016,38.312,38.312,0,0,1-14.664-5.16,47.41,47.41,0,0,1-10.942-8.866,15.9,15.9,0,0,0-.082,5.193,20.676,20.676,0,0,0,3.168,8.425,2.356,2.356,0,0,0,.212.327,2.152,2.152,0,0,1,.458.849c.357,1.388-.1,1.8-1.765,2.237l-.066.016a9.074,9.074,0,0,1-2.711.212h-.114a20.67,20.67,0,0,0,2.465,5.21,29.763,29.763,0,0,0,6.385,6.923l.032.034a2.773,2.773,0,0,1,.229.163,1.606,1.606,0,0,1,.816,1.071c.342,1.429-.179,1.681-1.617,2.042a12.085,12.085,0,0,1-2.776.343H2096a18.054,18.054,0,0,0,2.5,2.988,43.535,43.535,0,0,0,8.752,6.646l.295.146c.768.375,1.159.556,1.159,1.568v.016c-.016.833-.327,1.061-.979,1.534l-.295.212a26.536,26.536,0,0,1-11.168,4.589c-1.29.245-2.547.393-3.74.505a51.225,51.225,0,0,0,10.958,3.393,42.248,42.248,0,0,0,45.495-21.131,53.518,53.518,0,0,0,5.894-16.525c1.617-8.7,2.058-9.177,5.618-13.039l.85-.914h-2.334a1.529,1.529,0,0,1-1.518-1.534,1.478,1.478,0,0,1,.229-.8l2.53-4a33.513,33.513,0,0,1-5.29.441,10.084,10.084,0,0,1-4.769-.965,2.1,2.1,0,0,1-.312-.228,16.568,16.568,0,0,0-9.307-3.543,12.779,12.779,0,0,0-7.545,2.122,13.675,13.675,0,0,0-5,6.14,16.824,16.824,0,0,0-.686,10.3v.066c.033.114.1.309.131.473l.016.064c.212.8.311,1.226-.277,1.9-.536.62-.962.6-1.812.571Zm-7.382-3.053h6.787a19.709,19.709,0,0,1,1-11.479,16.579,16.579,0,0,1,6.123-7.513,15.814,15.814,0,0,1,9.323-2.628,19.433,19.433,0,0,1,11.022,4.147,7.5,7.5,0,0,0,3.281.588,42.8,42.8,0,0,0,8.117-1v.016a1.468,1.468,0,0,1,1.095.2,1.516,1.516,0,0,1,.473,2.107l-2.89,4.573h2.858a1.57,1.57,0,0,1,1.072.357,1.543,1.543,0,0,1,.165,2.156c-1.29,1.5-2.3,2.612-3.135,3.511-3.036,3.3-3.393,3.69-4.865,11.529a56.32,56.32,0,0,1-6.23,17.458,45.274,45.274,0,0,1-48.7,22.632,55.815,55.815,0,0,1-17.014-6.288,1.511,1.511,0,0,1-.915-1.388,1.529,1.529,0,0,1,1.518-1.534,51.3,51.3,0,0,0,9.21-.669,24.64,24.64,0,0,0,8.687-3.216,48.533,48.533,0,0,1-8.065-6.367c-2.253-2.254-3.951-4.67-4.052-6.76a1.466,1.466,0,0,1,.051-.521,1.516,1.516,0,0,1,1.844-1.1,6.317,6.317,0,0,0,1.273.2,31.691,31.691,0,0,1-4.963-5.862,21.988,21.988,0,0,1-3.43-8.639,1.636,1.636,0,0,1,.083-.783,1.537,1.537,0,0,1,1.975-.851,5.429,5.429,0,0,0,1.749.357c.163,0,.327.016.489.016a23.646,23.646,0,0,1-2.988-8.638,15.613,15.613,0,0,1,1.175-9.177,1.59,1.59,0,0,1,1.273-.85,1.523,1.523,0,0,1,1.617,1.429,41.174,41.174,0,0,0,11.5,9.227,35.506,35.506,0,0,0,13.5,4.756Z" transform="translate(-1505 2245.506)" stroke="#000" stroke-width="4"/>
      <rect id="Rectangle_11" data-name="Rectangle 11" width="82" height="82" transform="translate(579.999 4695.169)" fill="none"/>
    </g>
  </g>
</svg>
