<svg xmlns="http://www.w3.org/2000/svg" width="24" height="24" viewBox="0 0 24 24">
  <path id="Path_8" data-name="Path 8" d="M2460.045,2455h13.911a5.071,5.071,0,0,1,5.045,5.045v13.911a5.071,5.071,0,0,1-5.045,5.045h-13.911a5.071,5.071,0,0,1-5.045-5.045v-13.911a5.072,5.072,0,0,1,5.045-5.045Zm14.29,3.934a.5.5,0,1,1,0,1,.5.5,0,0,1,0-1ZM2467,2460.3a6.7,6.7,0,1,1-6.7,6.7A6.7,6.7,0,0,1,2467,2460.3Zm5.742,6.7a5.742,5.742,0,1,0-5.742,5.742A5.745,5.745,0,0,0,2472.742,2467Zm1.213-11.036h-13.911a4.084,4.084,0,0,0-4.081,4.081v13.911a4.084,4.084,0,0,0,4.081,4.081h13.911a4.084,4.084,0,0,0,4.081-4.081v-13.911a4.084,4.084,0,0,0-4.081-4.081Z" transform="translate(-2455 -2455)" fill="#fff"/>
</svg>
