<svg xmlns="http://www.w3.org/2000/svg" width="131.395" height="123.969" viewBox="0 0 131.395 123.969">
  <g id="Group_41" data-name="Group 41" transform="translate(-121.33 -1149.802)">
    <path id="Path_13" data-name="Path 13" d="M109.62,503.311c-3.551,13.178-8.85,24.689-12.414,37.864.359.8,1.515.179,2.173.374q59.779-.021,119.563-.021c.734-.442-.192-1.479-.172-2.134-3.458-12.669-8.278-24.354-11.738-37.021-33.492,0-63.851.69-97.343.69l-.046.165Z" transform="translate(28.794 727.564)"/>
    <path id="Path_14" data-name="Path 14" d="M209.93,498.585l10.753,39.406c.011.04-.04.075-.091.075H99.464c-.05,0-.1-.035-.091-.075l10.6-39.406Z" transform="translate(26.998 730.704)" fill="#fff"/>
    <path id="Path_15" data-name="Path 15" d="M515.067,537.691c0-.19-.568-.72-.866-.808a5.381,5.381,0,0,1-1.575-.944c0-.053-.069-.1-.153-.1-.454-.016-1.749-1.585-2.037-2.469a1.078,1.078,0,0,0-.623-.7,2.237,2.237,0,0,0-.663-.241,3.182,3.182,0,0,1-.829-.338,9.4,9.4,0,0,0-1.371-.562,5.492,5.492,0,0,1-2.512-1.409,3.011,3.011,0,0,1-.972-1.356,4.837,4.837,0,0,1-.234-.863,1.969,1.969,0,0,0-.355-.68,3.7,3.7,0,0,1-.435-.751c-.046-.146-.136-.266-.2-.266s-.114-.108-.114-.24c0-.325-1.154-1.425-1.831-1.745a2.123,2.123,0,0,1-.647-.419.779.779,0,0,0-.549-.16c-.792,0-3.564-.839-3.564-1.078a1.873,1.873,0,0,0-.364-.506,2.536,2.536,0,0,1-.443-.656,7.946,7.946,0,0,0-.551-1.02,2.509,2.509,0,0,1-.474-1.9,4.146,4.146,0,0,0-.428-2.185,4.231,4.231,0,0,0-1.1-.677c-.537-.26-1.132-.576-1.321-.7-.288-.191-.7-.242-2.5-.316-2.282-.094-3.356-.316-4.071-.844a1.417,1.417,0,0,0-.437-.247c-.056,0-.172-.192-.257-.427s-.233-.427-.33-.427-.175-.054-.175-.119a6.558,6.558,0,0,0-1.493-1.467A21.031,21.031,0,0,1,479.37,510a4.876,4.876,0,0,0-.976-.274,3.581,3.581,0,0,1-1.857-.82.246.246,0,0,0-.2-.159c-.239,0-.768-.772-.858-1.253-.047-.253-.09-1.346-.1-2.43-.009-1.942-.014-1.978-.351-2.51a7.9,7.9,0,0,0-.87-1.075c-.29-.294-.789-.8-1.108-1.134s-.826-.826-1.126-1.1l-.477-.657h46.986l5.312,19.681c2.884,10.684,5.1,19.479,5.1,19.5s-3.1.031-6.888.031-6.9-.047-6.9-.1Z" transform="translate(-281.508 730.702)"/>
    <path id="Path_16" data-name="Path 16" d="M581.1,498.58h7.689l1.7,39.482H579.383Z" transform="translate(-370.999 730.708)" fill="#ee1c25"/>
    <g id="Group_40" data-name="Group 40" transform="translate(139.357 1229.295)">
      <path id="Path_17" data-name="Path 17" d="M195.528,1242.4l1.709,6.834H96.43l1.709-5.98Z" transform="translate(-91.976 -1221.043)" fill="#ee1c25"/>
      <path id="Path_18" data-name="Path 18" d="M78.234,1117.4h6.834l-6.162,28.205H70.363Z" transform="translate(-70.363 -1117.4)" fill="#ee1c25"/>
    </g>
    <path id="Path_19" data-name="Path 19" d="M209.93,498.585l10.753,39.406c.011.04-.04.075-.091.075H99.464c-.05,0-.1-.035-.091-.075l10.6-39.406Z" transform="translate(26.998 730.704)" fill="none" stroke="#000" stroke-width="10" opacity="0.8"/>
    <path id="Path_20" data-name="Path 20" d="M302.992,63.785a30.7,30.7,0,0,0-26.974,45.394l26.975,45.159,26.975-45.159a30.7,30.7,0,0,0-26.974-45.394Zm-.342,17.832c.114,0,.227,0,.342,0a13.125,13.125,0,1,1-.342,0Z" transform="translate(-116.359 1091.215)" fill="#ee1c25" stroke="#000" stroke-width="10.397"/>
  </g>
</svg>
