<svg xmlns="http://www.w3.org/2000/svg" width="46" height="46" viewBox="0 0 46 46">
  <g id="Group_14" data-name="Group 14" transform="translate(-580 -4695.007)">
    <path id="Path_10" data-name="Path 10" d="M2107.29,2469.261h-4.169a.825.825,0,0,1-.156-.009,21.446,21.446,0,0,1-8.21-2.889,26.55,26.55,0,0,1-6.126-4.964,8.9,8.9,0,0,0-.046,2.908,11.574,11.574,0,0,0,1.774,4.717,1.318,1.318,0,0,0,.119.183,1.2,1.2,0,0,1,.256.475c.2.777-.055,1.006-.988,1.253l-.037.009a5.08,5.08,0,0,1-1.518.119h-.064a11.566,11.566,0,0,0,1.38,2.917,16.655,16.655,0,0,0,3.575,3.876l.018.019a1.533,1.533,0,0,1,.128.091.9.9,0,0,1,.457.6c.192.8-.1.941-.905,1.143a6.787,6.787,0,0,1-1.554.192h-.064a10.117,10.117,0,0,0,1.4,1.673,24.369,24.369,0,0,0,4.9,3.721l.165.082c.43.21.649.311.649.878v.009c-.009.466-.183.594-.548.859l-.165.119a14.855,14.855,0,0,1-6.253,2.569c-.722.137-1.426.22-2.094.283a28.679,28.679,0,0,0,6.135,1.9,23.653,23.653,0,0,0,25.471-11.831,29.958,29.958,0,0,0,3.3-9.252c.905-4.873,1.152-5.138,3.145-7.3l.476-.512h-1.307a.856.856,0,0,1-.85-.859.825.825,0,0,1,.128-.448l1.417-2.24a18.732,18.732,0,0,1-2.962.247,5.648,5.648,0,0,1-2.67-.54,1.2,1.2,0,0,1-.174-.128,9.273,9.273,0,0,0-5.211-1.984,7.151,7.151,0,0,0-4.224,1.188,7.658,7.658,0,0,0-2.8,3.438,9.415,9.415,0,0,0-.384,5.769v.037c.018.064.055.173.073.265l.009.036c.119.448.174.686-.155,1.061-.3.347-.539.338-1.015.32Zm-4.133-1.709h3.8a11.031,11.031,0,0,1,.558-6.427,9.282,9.282,0,0,1,3.428-4.206,8.851,8.851,0,0,1,5.22-1.472,10.88,10.88,0,0,1,6.171,2.322,4.194,4.194,0,0,0,1.837.329,24,24,0,0,0,4.544-.558v.009a.822.822,0,0,1,.613.11.849.849,0,0,1,.265,1.18l-1.618,2.56h1.6a.878.878,0,0,1,.6.2.863.863,0,0,1,.092,1.207c-.722.841-1.289,1.463-1.755,1.966-1.7,1.847-1.9,2.066-2.724,6.455A31.53,31.53,0,0,1,2122.3,2481a25.348,25.348,0,0,1-27.263,12.671,31.247,31.247,0,0,1-9.526-3.52.845.845,0,0,1-.512-.777.856.856,0,0,1,.85-.859,28.761,28.761,0,0,0,5.156-.375,13.8,13.8,0,0,0,4.864-1.8,27.15,27.15,0,0,1-4.516-3.565c-1.261-1.262-2.212-2.615-2.268-3.785a.815.815,0,0,1,.028-.292.849.849,0,0,1,1.033-.613,3.552,3.552,0,0,0,.713.11,17.716,17.716,0,0,1-2.779-3.282,12.307,12.307,0,0,1-1.92-4.837.914.914,0,0,1,.046-.438.86.86,0,0,1,1.106-.476,3.051,3.051,0,0,0,.979.2c.091,0,.183.009.274.009a13.237,13.237,0,0,1-1.673-4.836,8.742,8.742,0,0,1,.658-5.138.889.889,0,0,1,.713-.476.853.853,0,0,1,.905.8,23.045,23.045,0,0,0,6.436,5.166A19.873,19.873,0,0,0,2103.157,2467.551Z" transform="translate(-1505 2242.892)"/>
    <rect id="Rectangle_11" data-name="Rectangle 11" width="46" height="46" transform="translate(580 4695.007)" fill="none"/>
  </g>
</svg>
